<svg xmlns="http://www.w3.org/2000/svg" width="367" height="367" viewBox="0 0 367 367">
  <defs>
    <filter id="Subtraction_66" x="63.629" y="24.5" width="239.742" height="301.294" filterUnits="userSpaceOnUse">
      <feOffset dy="3" input="SourceAlpha"/>
      <feGaussianBlur stdDeviation="3" result="blur"/>
      <feFlood flood-opacity="0.161"/>
      <feComposite operator="in" in2="blur"/>
      <feComposite in="SourceGraphic"/>
    </filter>
    <filter id="Subtraction_66-2" x="63.629" y="24.5" width="239.742" height="301.294" filterUnits="userSpaceOnUse">
      <feOffset dy="3" input="SourceAlpha"/>
      <feGaussianBlur stdDeviation="3" result="blur-2"/>
      <feFlood flood-color="#9bd5cd" result="color"/>
      <feComposite operator="out" in="SourceGraphic" in2="blur-2"/>
      <feComposite operator="in" in="color"/>
      <feComposite operator="in" in2="SourceGraphic"/>
    </filter>
    <clipPath id="clip-logo_square2">
      <rect width="367" height="367"/>
    </clipPath>
  </defs>
  <g id="logo_square2" clip-path="url(#clip-logo_square2)">
    <g data-type="innerShadowGroup">
      <g transform="matrix(1, 0, 0, 1, 0, 0)" filter="url(#Subtraction_66)">
        <path id="Subtraction_66-3" data-name="Subtraction 66" d="M110.844,283.293a105.995,105.995,0,0,1-41.768-8.584,108.2,108.2,0,0,1-19.289-10.73,112.685,112.685,0,0,1-17.375-15.023c-1.017-1.078-2.029-2.191-3.006-3.309a95.941,95.941,0,0,1,14.489-14.389,64.06,64.06,0,0,0,50.546,24.722,68.636,68.636,0,0,0,6.943-.357c50.949-3.552,87.927-46.638,87.927-102.447,0-15.719-4.426-29.05-15.278-46.015l-.158-.339c-.787-1.69-1.181-2.538-1.6-2.538-.385,0-.787.69-1.589,2.066q-.218.373-.476.811a56.82,56.82,0,0,1-49.271,27.616h-26.3c-34.8,0-63.11,27.184-63.11,60.6a52.507,52.507,0,0,0,.412,5.725q.041.372.081.744c25.731-17.7,57.416-26.669,94.172-26.669a5.054,5.054,0,1,1,0,10.1c-57.9,0-91.409,23.412-109.327,43.052A120.353,120.353,0,0,1,2.746,192.051,124.631,124.631,0,0,1,.627,153.465a122.362,122.362,0,0,1,9.889-37.481,117.1,117.1,0,0,1,21.9-32.957L110.844,0l78.433,83.028a116.9,116.9,0,0,1,14.2,18.4,119.167,119.167,0,0,1,10.144,20.406,122.594,122.594,0,0,1,6.086,21.746,124.855,124.855,0,0,1,0,44.832,122.594,122.594,0,0,1-6.086,21.746,119.169,119.169,0,0,1-10.144,20.406,116.9,116.9,0,0,1-14.2,18.4A112.683,112.683,0,0,1,171.9,263.979a108.2,108.2,0,0,1-19.289,10.73,106,106,0,0,1-41.768,8.584Z" transform="translate(72.63 30.5)" fill="#fff"/>
      </g>
      <g transform="matrix(1, 0, 0, 1, 0, 0)" filter="url(#Subtraction_66-2)">
        <path id="Subtraction_66-4" data-name="Subtraction 66" d="M110.844,283.293a105.995,105.995,0,0,1-41.768-8.584,108.2,108.2,0,0,1-19.289-10.73,112.685,112.685,0,0,1-17.375-15.023c-1.017-1.078-2.029-2.191-3.006-3.309a95.941,95.941,0,0,1,14.489-14.389,64.06,64.06,0,0,0,50.546,24.722,68.636,68.636,0,0,0,6.943-.357c50.949-3.552,87.927-46.638,87.927-102.447,0-15.719-4.426-29.05-15.278-46.015l-.158-.339c-.787-1.69-1.181-2.538-1.6-2.538-.385,0-.787.69-1.589,2.066q-.218.373-.476.811a56.82,56.82,0,0,1-49.271,27.616h-26.3c-34.8,0-63.11,27.184-63.11,60.6a52.507,52.507,0,0,0,.412,5.725q.041.372.081.744c25.731-17.7,57.416-26.669,94.172-26.669a5.054,5.054,0,1,1,0,10.1c-57.9,0-91.409,23.412-109.327,43.052A120.353,120.353,0,0,1,2.746,192.051,124.631,124.631,0,0,1,.627,153.465a122.362,122.362,0,0,1,9.889-37.481,117.1,117.1,0,0,1,21.9-32.957L110.844,0l78.433,83.028a116.9,116.9,0,0,1,14.2,18.4,119.167,119.167,0,0,1,10.144,20.406,122.594,122.594,0,0,1,6.086,21.746,124.855,124.855,0,0,1,0,44.832,122.594,122.594,0,0,1-6.086,21.746,119.169,119.169,0,0,1-10.144,20.406,116.9,116.9,0,0,1-14.2,18.4A112.683,112.683,0,0,1,171.9,263.979a108.2,108.2,0,0,1-19.289,10.73,106,106,0,0,1-41.768,8.584Z" transform="translate(72.63 30.5)" fill="#fff"/>
      </g>
    </g>
  </g>
</svg>
