<svg xmlns="http://www.w3.org/2000/svg" width="380" height="81.381" viewBox="0 0 380 81.381">
  <g id="Group_555" data-name="Group 555" transform="translate(-35 -118)">
    <path id="Icon_ionic-ios-leaf" data-name="Icon ionic-ios-leaf" d="M89.4,71.2c-10.978-1.7-11.8-2.48-11.8-2.48C80.9,53.036,72.846,36.7,61.423,27.264,46.206,14.718,23.083,23.831,5.069,4.757.872.306,3.31,54.668,25.86,75.268c16.489,15.047,35.9,10.427,41.222,7.969,4.832-2.247,8.2-7.185,8.2-7.185,8.8,2.755,13.14,3.009,13.14,3.009C91.518,79.443,93.086,71.771,89.4,71.2ZM69.942,72.767C53.475,67.829,39.148,55.6,29.865,46.021a.864.864,0,0,1,1.166-1.272A128.883,128.883,0,0,0,72,67.617,7.9,7.9,0,0,1,69.942,72.767Z" transform="translate(31.624 113.501)" fill="#11997e"/>
    <text id="Nydrobionics" transform="translate(78 180)" font-size="51" font-family="SegoeUIBlack, Segoe UI"><tspan x="0" y="0">Nydrobionics</tspan></text>
  </g>
</svg>
